<svg height="32" width="32" xmlns="http://www.w3.org/2000/svg"><path d="m16 0a16 16 0 1 0 16 16 16.019 16.019 0 0 0 -16-16zm-.048 9.828c2.258 1.227 3.448 4.186 3.448 6.472a7.269 7.269 0 0 1 -3.352 5.872c-2.258-1.227-3.448-4.186-3.448-6.472a7.269 7.269 0 0 1 3.352-5.872zm.048 20.172a14.021 14.021 0 0 1 -2.518-.239c-3.904-1.834-6.232-6.047-6.232-11.311 0-5.041 2.707-9 6.205-9.183a9.044 9.044 0 0 0 -2.855 6.433c0 4.353 2.944 9.05 7.7 9.05 4.738 0 8.45-4.92 8.45-11.2a15.925 15.925 0 0 0 -2.419-8.775 13.982 13.982 0 0 1 -8.331 25.225z" fill="currentColor"/></svg>