<svg fill="currentColor" viewBox="0 0 100 100" xmlns="http://www.w3.org/2000/svg"><path d="m50 82.61c-5.87 0-11.35-1.5-16.44-4.5-4.91-2.87-8.8-6.76-11.67-11.67-3-5.09-4.5-10.57-4.5-16.43s1.5-11.35 4.5-16.43c2.87-4.91 6.76-8.8 11.67-11.67 5.09-3 10.57-4.5 16.44-4.5s11.35 1.5 16.43 4.5c4.91 2.87 8.8 6.76 11.67 11.67 3 5.09 4.5 10.57 4.5 16.43s-1.5 11.35-4.5 16.43c-2.87 4.91-6.76 8.8-11.67 11.67-5.09 3-10.57 4.5-16.43 4.5zm0-61.17c-5.22 0-10.04 1.3-14.48 3.91-4.3 2.48-7.7 5.87-10.17 10.17-2.57 4.43-3.85 9.26-3.85 14.48s1.28 10.04 3.85 14.48c2.48 4.3 5.87 7.7 10.17 10.17 4.44 2.57 9.26 3.85 14.48 3.85s10.04-1.28 14.48-3.85c4.3-2.48 7.7-5.87 10.17-10.17 2.61-4.44 3.91-9.26 3.91-14.48s-1.3-10.04-3.91-14.48c-2.48-4.3-5.87-7.7-10.17-10.17-4.43-2.56-9.26-3.85-14.48-3.85v-.07zm0 49.76c-4.09 0-7.83-1.14-11.22-3.42s-5.89-5.36-7.5-9.23l3.65-1.63c1.17 3 3.15 5.38 5.93 7.14s5.81 2.64 9.1 2.64 6.31-.91 9.1-2.74c2.78-1.83 4.78-4.17 6-7.04l3.72 1.63c-1.61 4-4.13 7.13-7.56 9.39-3.3 2.17-7.04 3.26-11.22 3.26zm-8.15-25.3c-1.13 0-2.09-.39-2.87-1.17s-1.17-1.74-1.17-2.87.39-2.1 1.17-2.9 1.74-1.21 2.87-1.21 2.1.4 2.9 1.21 1.21 1.77 1.21 2.9-.4 2.09-1.21 2.87-1.77 1.17-2.9 1.17zm16.3 0c-1.13 0-2.09-.39-2.87-1.17s-1.17-1.74-1.17-2.87.39-2.1 1.17-2.9 1.74-1.21 2.87-1.21 2.1.4 2.9 1.21 1.21 1.77 1.21 2.9-.4 2.09-1.21 2.87c-.8.78-1.77 1.17-2.9 1.17z"/></svg>
